<mxfile host="Electron" agent="Mozilla/5.0 (Macintosh; Intel Mac OS X 10_15_7) AppleWebKit/537.36 (KHTML, like Gecko) draw.io/25.0.2 Chrome/128.0.6613.186 Electron/32.2.5 Safari/537.36" version="25.0.2">
  <diagram name="Page-1" id="igaXI9DO0YDVL8pnlyIz">
    <mxGraphModel dx="1515" dy="812" grid="1" gridSize="10" guides="1" tooltips="1" connect="1" arrows="1" fold="1" page="1" pageScale="1" pageWidth="850" pageHeight="1100" math="0" shadow="0">
      <root>
        <mxCell id="0" />
        <mxCell id="1" parent="0" />
        <mxCell id="CYpEhEliiHO1DW0B8zgd-1" value="User" style="swimlane;whiteSpace=wrap" vertex="1" parent="1">
          <mxGeometry x="164.5" y="128" width="280" height="570" as="geometry" />
        </mxCell>
        <mxCell id="CYpEhEliiHO1DW0B8zgd-3" value="Local environment" style="swimlane;whiteSpace=wrap" vertex="1" parent="1">
          <mxGeometry x="444.5" y="127" width="355.5" height="572" as="geometry" />
        </mxCell>
        <mxCell id="CYpEhEliiHO1DW0B8zgd-6" style="edgeStyle=orthogonalEdgeStyle;rounded=0;orthogonalLoop=1;jettySize=auto;html=1;entryX=0.5;entryY=1;entryDx=0;entryDy=0;" edge="1" parent="CYpEhEliiHO1DW0B8zgd-3" source="CYpEhEliiHO1DW0B8zgd-7" target="CYpEhEliiHO1DW0B8zgd-10">
          <mxGeometry relative="1" as="geometry" />
        </mxCell>
        <mxCell id="CYpEhEliiHO1DW0B8zgd-28" style="edgeStyle=orthogonalEdgeStyle;rounded=0;orthogonalLoop=1;jettySize=auto;html=1;entryX=0.25;entryY=0;entryDx=0;entryDy=0;" edge="1" parent="CYpEhEliiHO1DW0B8zgd-3" source="CYpEhEliiHO1DW0B8zgd-7" target="CYpEhEliiHO1DW0B8zgd-10">
          <mxGeometry relative="1" as="geometry">
            <Array as="points">
              <mxPoint x="83" y="323" />
              <mxPoint x="83" y="132" />
              <mxPoint x="118" y="132" />
            </Array>
          </mxGeometry>
        </mxCell>
        <mxCell id="CYpEhEliiHO1DW0B8zgd-7" value="&lt;div&gt;&lt;br&gt;&lt;/div&gt;&lt;div&gt;&lt;br&gt;&lt;/div&gt;&lt;div&gt;&lt;br&gt;&lt;/div&gt;&lt;div&gt;&lt;br&gt;&lt;/div&gt;&lt;div&gt;&lt;br&gt;&lt;/div&gt;&lt;div&gt;&lt;br&gt;&lt;/div&gt;&lt;div&gt;service&lt;/div&gt;" style="points=[];aspect=fixed;html=1;align=center;shadow=0;dashed=0;fillColor=#FF6A00;strokeColor=none;shape=mxgraph.alibaba_cloud.webplus_web_app_service;" vertex="1" parent="CYpEhEliiHO1DW0B8zgd-3">
          <mxGeometry x="105.3" y="292" width="54.900000000000006" height="54.900000000000006" as="geometry" />
        </mxCell>
        <mxCell id="CYpEhEliiHO1DW0B8zgd-8" style="edgeStyle=orthogonalEdgeStyle;rounded=0;orthogonalLoop=1;jettySize=auto;html=1;" edge="1" parent="CYpEhEliiHO1DW0B8zgd-3" source="CYpEhEliiHO1DW0B8zgd-7">
          <mxGeometry relative="1" as="geometry">
            <mxPoint x="132.64285714285734" y="400" as="targetPoint" />
          </mxGeometry>
        </mxCell>
        <mxCell id="CYpEhEliiHO1DW0B8zgd-9" value="" style="shape=umlActor;verticalLabelPosition=bottom;verticalAlign=top;html=1;outlineConnect=0;" vertex="1" parent="CYpEhEliiHO1DW0B8zgd-3">
          <mxGeometry x="-164.5" y="152" width="30" height="60" as="geometry" />
        </mxCell>
        <mxCell id="CYpEhEliiHO1DW0B8zgd-10" value="Slack" style="shape=image;verticalLabelPosition=bottom;labelBackgroundColor=default;verticalAlign=top;aspect=fixed;imageAspect=0;image=data:image/png,iVBORw0KGgoAAAANSUhEUgAAAOEAAADhCAMAAAAJbSJIAAABelBMVEX///8auP9AtljjBWr7wAL///38/////v////z6///+/P/9/v8Zuf3kBGw/tlfjAGlEtVKQ2PL/6vyHxpr+vgA8rFXC6szNK3S+AFr44PbrwCb6wAD9+c7pwR7//vcPs/jU+fmz4sHw0V4arOJ+w43p//+r4ur/9/////L/9P/y//85ulX4//c+q1X//9///+vcCG0js/8VsvHw//PYAGL1xAD//eTPAFfmA2Wy6fmV2et5yuui5PLE+Pvv//Xh/emu4r1dyOYAuPJdueRUqGVAoVcwtdus3L1lunmd1KfU9t9eqm9kxud/yJQnqtx2s4CfzKhuzuix7/md1e0Kt+bM8Pi23uRNoVxDv+JeuHVlt3/G48yAwYQ1vUxmp3OEuZL8+sX1xufhfbDMU4qwPWzYmr715JHtxU7w22z38KrGPnjLZJPyyOHnxjK/RYL47ZTZAFX76a/lqsrgdqv2233SQ4K+AFLs0Engj7vJHWro017iwyLy34H+78wJzJI8AAATcElEQVR4nO2di18T17bHh8B+h4QCCcSEjULTDMMEERKIqGBRbEWvVaun9tRzC3IPFZW2Wiu1h/O/37X2JJiQSTI8BqOf+Rkekm2Yb9baaz/W2qNlRYoUKVKkSJEiRYoUKVKkSJEiRYoUKVKkSJEiRYoUKVKkSJEiRYrUFWLkY19BpOOLEGJxTvAr4fBBmWzVlIHO8tJOQ4QJV2ttu47jCMI1J8KRBUkPfBaJJHAzKZmShDOllJSCEqLER7zu4CKawPXmz19eunLlytLVa3mHM+EoRhtaARPXyyvrF65fT6+vuFyiLQlt8ZpdJiKIuPz15Nx4fG51dXXyxmVHOY5uvHoOb8LK9ac314qpWHHtztD6PJrU4h/rmo8mkr/29WRPPN5zCdTTE5+8ddUpyIaLZ4Qvf3MzlTCano6l1r5Nu0Ran0b0Jc7VR3M98dXVOAgAQZNX8ko1NHJXvgTrTU9PJxIxQEzEYmu35+kn4aXEcr6Y67mEJgThJzTm5NfnVTVkEmOn9Tux6UQxVqfptZ8dqtq9dDeIMKqdpbmeJsVX7+Y1hEpqcU2F1CsAl4g1KBEr/s9yQQlFre4dPhhThD6+5wMYj88tOTg6WoQD5fx3h/mAcCC29g2MHDCAdq8lmXRI/sa4H+Gl+K1rBCcBllBy/nbxMF8sNjAwkLq5jgOl1cW9UQlx1cdHDeHqXYdqmN4IRlbWEk0mRMJE8SkMjJJ18bgvWP5W3IfQQE6eBz9likpxOzXdTAg/gdiz7rLuJWQWdeW1yR5fRIinq0t5AcM6Yw7GUT/CRCJ131Wyi72UcLE0F29hxJ6eGw6nmlKeTg00d8Mq5LfLUnYvIA72d8dbE07mudBU8ettCNdWJOvmUZHmb/S0ITxPhbYYvx1rQQgqrkslunc8tFRnQqGsoUQbwrQFsehjc7QW6UAIK6sOhKk0eEL3EhLutCeUHQljadLNhBZzH1xqR8iAUHSyISFdTMj11bmWgEEIE91O6JLzj+KXPmtCKb5ubcTPgBCu33r8WRNy7bjOXb/FxedDKLh97d64tz3jbdF8XoQ42mnxcHKu59Ilb4cm/pnZEAmlFA9vrcbNXlQzIf3ECXFDn2qbX3tS20r83PqhpZgSwtUi//29R+M9PT2fnZdagmMqiRBG81efjM8ZVb/AN/fMzPuTIGyzfjt4ijr5x//4qkH/yCuLfBqEgSSEcBzHSyDigxNHgH0/C0JjR+JyI3EgSvknQcisei9t5a/wcykJFYKwD9IafkxptxMGFea1gVDXiVc39buckEKkDNQQkxRgR2ZyTeCeFgNgelzCs9ucEoIT5RKC29K0k6CN1oS4rpAFSqsVCcEJ4e2Abqskw6oHpaSSVAV+g48tjmO6c/7a1aUvAun7y3lBMOIw5lhHJBQUfMB151fSFy6YXD+WNsjwCM0Lw68U4vGVyTmztT0+Do82whaTjx5cdrAigzn0aITEtaRy07fv/LCWShXX7vycnke/Z6Hl+r0xgDuP706Ow3Rsrs32vSfz9KWe1dVHTx46kh/4XmAbcibWvyxinh+z4ali8cf0sgAjhkVoAEn+6qPx2qohHkSwkOqJ31vKC3pkQjZ/e62a6/cUWxtaESo0LyUYD50vJuM9WEQSmNBL508+AE89AqGJUstDxenp+mcHpovfLYuwxhL4vZTXcvTNK6MODntp/IGjcV5DSABCpiH6quVvmzLFiUTqnyvSkrBIC8GSXDHx8N7RyA4I4/HJqw5WuAWyIeMwRrj3Uz7PJ4pDLpGShkGohMw/8cnRBxK49aPzOGqQILM2pqTU6TUfwhj0xeswaigaQrwRnC6tHhOw59FqfPWKIFjFF2DmzYSU8//0bzAdW5vX0iKnP2ZQV+ZvHbH7HciEnEkc+2E2HoiQpItekDlsyOlE8YLL6KkTVnP0xyVcxdFx7iuHBiVkYsgvUezl+r+bhxlhCOM+EQ/aZLA72NB8vutorlX7flgEQoFD4VqrJrHY2roiIoRMuHLutskNBtGNPCe6Qyw1hIqp9WLCL9DU7BxKJtzk6E8CWM3jByIkPxWb61FqSn0Dce/0AS2Rv3diQovo9qNFzCMk5EJxulWTROw+CWU8pHmfkrwjEsqOu4mGEAbOC6nWhInbnPAQCE0VwjFH/HiVENayopUNE8EJ71POQ5idSufupdVjuinOZsfjNxzuFIQg9xPTfhMyGPoSA8UVSQUn1oWUXz9MmPExdeH0h0MU4V8cO5R6C4y7QgMhVn352MdUKyYGfkRCGBH9Cb2WxXUsQj19Qk4ePzo2YRzXXFdhzSApUctrvlePw3lsyJU48QHCVoCx2J2VUAgJl+LJ8WMpMN47zzRnjCsx5DsUoBWLaQeiUXvC4n1Xcn765X0YvdqVknQEnFsSDEKIBMK0rxFhUl380YWhgtN2hKm1FSK5GwYhtfOPqgvg4xBOnldKcQ42pPNPvRrhxIF74idcNlyHZ30Ja20SseJTVxZ4GP2QUO3i3BsLmoMj1jYyoBe6XvxzVYGv3xyIpVKxai30gImQxcS/BoZc06SZMDGdMFF0ejr1v/MhbUURDss7Z8n46RFGRQScW4WPL5zqJhm3pFpOF1MHpd7m6lNowm9XSCtCz4bT07Ef1sOqkQZCWJcK3IlqWfTkS4iHLeJzVxxZ8F4IF1BCXL8Zq99lSgwM/Ct1Z6W6y+TbDxPQBvw47YRWX4sXxrnz8NbcUbx0zuzJjX/vWLTadQgs85kUP92sOWmsaHYMU09XqGQtCbFJLHUzHWKVO0Mrci3OP7jXcTO4zobQAydvPHQ4EbXgQGCJKKVe+XKtWI014KfFm/dXBAwlpEZ46MgJOmjxh6EVB50gJEKlNcHzkMJ5/ACT82338+s0+eBh3kbzU8scTaMmjQG+upx+mkqljP+lbt5edwkjtRCpYNbWuH8BLdeG0i5YmetwD7iZ02Ui//irpWCpma+u5TH5i4nD+gvzjnfRlfTtoS+fDl1Pu1bDWVnu/vTzlw0auv/Tcv0/DVsa7ak8Y7QVcYRsfdCXSTCbq12Xc6shfmBS3HXrs6vQhoa3n98s14Erxwkkb/8gyjvs2+p1JEwCsFMybxv/QJRKPDn8oQYAfpu0rDM8pSClMgy4i01MnUWjan+nBIwNFmn1Oli+oJS321//c25SovWvCE3O9Hw/4eA2LqxmxaEHNQ/zvbEAwJu0sWX5HoDFnKdkwhGH0tgE47ao93bzLpyRDTEHS/EdpiSAAIDgGEAPE5qziAIsiJNVs9lfJ3BdQlXVdSmFZ7XmFi4cLf+36jT5LOggiip5qNdTobl00NngD7oePExtCZpSSQUf9S+Cji2ZVhg98JC6bxXAwXfgEC6HjmFrPAwd2njoCbq840glBzOHJLWQoprHxjbgf4PQaBDdEKNE/Zk7YnGbMFgo6YszuY2NXAAtXLTNeIkZmZAJmRKFzWdbI6ON+r8p4lajORF4KATbvB99P/Ly35mCNJUK9fGGSW7bF3Pbb385d+7cWADt7j3fWYCJoxI05IBDROHNi8VSKZns7U3WaWTQ+pDHdrw2vcne2dlK5d3LVxLCaeOYoajOPR8rZ7N9wx3Uh4Iv5bHd5zMaum7IXqoyW79Xevv7k8n+eiVHpuTBiSyR2VoszeJP8alKpTT6V0YeCjV8Yftctq9s1BHSI81myxNox5AJN0dKyVlQb6MMIWZLMNptjiwCm9cmCa37+xd/fVU/24JIM/O2nPUsBGZsq6xRGc3dV97dsSGihgUHEwu2OVqCy+7vPSzwUqIYx8ipNrFJrQ16M6g0kil4WyswgECMWfjFu/zh9nQNnObL2G82dSFskRBWUTBA0FcjJR+8KqGQnEriZEZKjU/Bo5IsbQ16mxhcF7Rrvw3OVi/ojf/ZwbvdcB7G6C+twlbp4KpbEDL5ctF7E+raJCu9yd//qlY6aeW6r8c6uGYrSw4Pl/dmLEXsEHb1mXTEm9/97PeBkECbTeiDTc/2zvZXRjOWmXYRW8zsIuAxIMvQc8vPbUl0GHkL5RRGKrO+PnpACG1elPzaQNgpvTTRFEZ6vl2FOzJjFkPq2IZmoeSelNr8vbc9IXjp5uJsU5ukCaild4NmQsIPwszRBf0wO9y3fVGGkpqh8o9Sf79PHzQQfxpCQZ+V+g+PJMZN+5O9pTew1oDhTGxky8frhlX9siCYPn1AS01tlZK97QmV3PIlNCo9s5BQudvZ8kkA+87lhBXGSkoNvk8mffE+ELLBEf/RBFXZKsA6ikr99oSEYxswBQ6BkGRG0ddaEoIBOcuMtnwTsK8qmHEp+3nfyQjLr6mWYZR9Zd4BYYvrr9rQwnehJeH7QZxxEfvt8MkIsztKyxBmpxSuvlUXA8Ip8D9OOhE6xNJAeIJAA4uR7Gtlh0FIMiPJWR8T9sNKY7a0ZcEqULcn9EYUrvezHafbLYSjBRBuCM3E6ScQ6dRW0s9Lzeqp9EzgPfTAS5tnNI2EWrOd8rEJcQI+DLFUn/rMG1btovCs5Hf5OEZWFmGsA/MEIOS2zB1zVuqtpPr6JhaA8LRjKd7BSm6+q/gRzvZWkqODQuDuQmdCoom9Vz7WyqIPZwrAuG1LN4y9faXkC7j8JjednU1WFp/B+hc3ogIQMsG3j0mIE9ls+VwOV5ghEEoh3iyaK/3QGfE7JBx9RaUAyACETLqwtui8tPflw9VT+fnFAtFhEDLGCy9LSFWp1GZvuFkBs+rFv2r3dgpkQ6F/GzMh4wiWxG0a3MoYzu7lSEj5J8q4fDVSqfTWFg9oy37csqlsTdVCdwBCAiuQhX3cpDnKBDxr9tsAcOw1rptCIiRqanO0lKz0e4hJMCV8M1saGRRucEIGhHJhIntUQm/DbWyHFcKg84Q12q9elCr9NQjw10plcSvjuLX3NAChZJiqmnk+lj1KuMmin5az53ZsO7zNRIXZCZl5+a5Ui6hJsxc6hek9FpjQYtx2hZj5bfcoiEhYHtvLMR0eIZ5TYcSlhc2txZLZ54aB/t0fm1K4RKrAhFwzLAaQxM69PeftEWZNZM32tX54+mV7hkkedpZbYMo289fWn+/fv//z5b8zEucWH9LYAWzobT/A9IDome3nmLcIot29/Z2FMBb2TaLUYlKqwiBoCrO3jbOnAOPhBxMoi9sLQRJPudwM5p7kmZyARkLGsLaAg28qxhvLEI5EiGepuOaWaCtMAbuuu+xikvTMZPLYQil6uEbwSIQmQyylbJ9FVibbak4/npXQjGA9rDBQTDaOToEJzWeiuXcIWrZ5mMIHfCOwxOVsCIWoVtKYQpLGdVqQ0cLykvjmKzPVNiZTj5lxqrz8eMPDiHN4nPH9zKsX2bjUDjJr06RAXHQ/44EoCtZhYCDutlzXds2tzDsTWtq9iEVONv6xtfcZOhm3OThtN97Xs/GaOhNKfvG3vyf+nqjT3/v/BU6O5W/df8+PIOtD/TcsERoS2Nnyf/ZzNhYJdfMNdj0FmbXpCVgnZOuEiOWx/ZyGwe9jA3RUgL02Wz/PDtevm8zkFBbvExuhJHZPWQFiKdUTw35bGMPZc2BFnCtZ4d4Y4mQKQKiQ0Gd9BKsjWByZurEuBjw6Yd13JoFtXiXkipkT6fg2zJYh4Ixt2wQPzXyWhGBD3AudgSV82FVPJ9KxCLO1fggR9rXNgbCLB41OhEryVjb0UCdsKnm3/t8IqE6EVmsv9Rh3FygL4Wzh6akTIe1A2DeWg9XnJ0zILdaBMIs5+m4eEFsQmhxHEC/ty+6IUHL0p6YONmSUEcr9Z21VvRah5OhPS8rk+htSjEnPfsnZ2d4/JZ7GF/bz4daI5dfSDfuueieRmNo6XJFiADEd11/5gyIh0dvZloTZsZxyu9aCcGGOfFaq+Pgn/ixZeiOkUESz//rnnMwG/96M4ofPcnSNYLrl+Of6kbCSHM04WAqumb3bsmIou3+RhlE6emoSmOufbcr1J/tnk5XSS4n/oxrVRO+3Ihzu2+BUsy6ONCbX31+LL7VQkzT1GqObFp4EgpWDmxsb7muqnzV/3VtQQHgmGZjjSSrM9Scx1V/xGGcNIeb6n1Vz/Vpze7887BXD1gFijn53g5uzCh8Zo41gTslejUDo/JDrx2INLNf4dbC6CUOI4LkJk7VusCLwlvftj3v9nQWEpDHXj4TwqLzPqAPfo8LO7WYPE+ISf6HpEF+3CW/8KKzNF+Cj/XX9MFl6kTlY9HGNp95ze+W+xkJaLJQhIoyy0dOUgq4G0T7z8l2yWi6N/XB29I8MLPqq5y3MgVDFc2/HGofF3f0F66ySS8cXw1w/F2oKz66ZXH9/pfLu1zcFpYmsHhPlTFIO44qNR7tqxxKyfXsbNoyW3Y9oBI7KCq+ebb0fHR0d2frrld8IDm3smdcTu2jI7Nje/sYCZ81HabtWJtdfKOA500GJmeqmFmY7TdsXZzZ2dnZe52bCOOUTrhjDm+0wy7uZavPVIyHeTIi73EuN0m7em2kWzpwpNWW33n8d0NzEW8YzRrRtuy7hZ5bBPhVRczdQhRlsJQRVflUi3g0JtDmQj5bu2vWEr7wsIMfUu3fTCJ+dJYnPCwprDXRYZnl3LPmU7OiJNHxp16ibN58iRYoUKVKkSJEiRYoUKVKkSJEiRYoUKVKkSJEiRYoUKVKkSJEiVfX/AteydSiAoy0AAAAASUVORK5CYII=;" vertex="1" parent="CYpEhEliiHO1DW0B8zgd-3">
          <mxGeometry x="102.75" y="152" width="60" height="60" as="geometry" />
        </mxCell>
        <mxCell id="CYpEhEliiHO1DW0B8zgd-11" value="" style="endArrow=classic;html=1;rounded=0;entryX=0;entryY=0.5;entryDx=0;entryDy=0;" edge="1" parent="CYpEhEliiHO1DW0B8zgd-3" target="CYpEhEliiHO1DW0B8zgd-10">
          <mxGeometry width="50" height="50" relative="1" as="geometry">
            <mxPoint x="-124.5" y="182" as="sourcePoint" />
            <mxPoint x="-334.5" y="372" as="targetPoint" />
          </mxGeometry>
        </mxCell>
        <mxCell id="CYpEhEliiHO1DW0B8zgd-12" value="Agent" style="shape=image;verticalLabelPosition=bottom;labelBackgroundColor=default;verticalAlign=top;aspect=fixed;imageAspect=0;image=data:image/png,iVBORw0KGgoAAAANSUhEUgAAAMgAAADICAIAAAAiOjnJAAAAAXNSR0IArs4c6QAAAARnQU1BAACxjwv8YQUAAAAJcEhZcwAAEnQAABJ0Ad5mH3gAABrXSURBVHhe7ZwHUBTptsdf1bvvht19++6m++4qoG5QgmJGoqJrzmvGVTErigFMa06sOYEZMGJWzLK4ZgTJOecMA5MHJqd3errlYouC636ze1+fX/2Lophvuqfq/Op8p3tm+A8jghAAxUKIgGIhRECxECKgWAgRUCyECCgWQgQUCyECioUQAcVCiIBiIURAsRAioFgIEVAshAgoFkIEFAshAoqFEAHFQoiAYiFEQLEQIqBYCBFQLIQIKBZCBBQLIQKKhRABxUKIgGIhRECxECKgWAgRUCyECCgWQgQUCyECioUQAcVCiIBiIURAsRAioFgIEVAshAgoFkIEFAshAoqFEAHFQojwvmKpNVrMv2+YKhIAxeJ0mCoSAMXidJgqEgDF4nSYKhIAxeJ0mCoSAMXidJgqEgDF4nSYKhIAxeJ0mCoSAMXidJgqEgDF4nSYKhIAxeJ0mCoSAMXidJgqEgDF4nSYKhIAxeJ0mCoSAMXidJgqEgDF4nSYKhIAxeJ0mCoSAMXidJgqEgDF4nSYKhIAxeJ0mCoSAMXidJgqEgDF4nSYKhIAxeJ0mCoSAMXidJgqEgDF4nSYKhIAxeJ0mCoSAMXidJgqEgDF4nSYKhIAxeJ0mCoSAMXidJgqEsDcYuWUyMJiBGExwvtx4l/ixQ8SJA8TJI8SJY+TJE+SJU9TJBGpssj0usiMuuis+oQ8eWqxMr9SXSXU1Cm0KjX7aJj3DFNFAphbrLAo/rLDFb5Hqlceq151vGZ1EH9tMH/jKeHmM0K/c8Jt54U7L4l2X5XsCxUH3JYcCZMF3ZeFPJGHvlD9nKiOy1NWizSsA2LeJ0wVCWB+sQRLD1UtPcJfdoy/4rhgZZBodbBo7UnxhjOSTeekfhek2y7V7bhat/t63b7bMv+7skNhdUfD6wMfKE8+Vp95qr4aqXqWquShXr9RmCoSwNxi3Xsu9D7IW3xYsORwrc8xwfJA8cog8eoTknWnJRtCJFsuiLZdlmy/Jtl9XbbvVv2Be/WHf64//qA+6GHdqceKkKeqc8+VF6IUobGKjFKVTK5mHfx3iUKplsjqpLJ6paqluqvUGniWUvX7v36migQwt1h3QawA3qJDfBBr6VH+skDRykARiLXmlLixWHuuy/bfqve/W3/EJFYwJZb83DPlhUjlpWjV1Wj1jThlTJ6SL/2dW1cVr/b67fC1W3dv3nEg7JenQpGEtaBxQL6s3IJnz2Nu3Xt04eqdhJQM0Iu1xsxhqkgAc4t1J0Kw8EDVooBa74DaxYcot5YfF64KEq05KV5/Vrz5vMjvonj7VenuUOm+myaxwuWBD+QnHtWffqI4/1x58YXySrTqWqz6erzqZoImKlslkP5utZFI6/YfCrbu0dfC1tHS1qmn28gLV27V1ctZyyDQorJyCnb7Hx8zeW6nXgMtbVzgKTv9j9fLFayVZg5TRQKYW6zbEUKvfZULDtQs9K9ZdLAW+pYvbIhBwtUnxOvOiDeFiKimdUWy65p03426g3fqj4XLgx7Un3gkP/tMeTFKDVaFxqlvxKpvJahvJ2nCUzTReRqpnH0W8wRcGT15DihiYesMsbRxmjJ7cTWvlrUMkpmTP23+sm+69oU1FjbUSsiuA4Eo1hthvdBmc/OZcN6eCq99PHDL25+/+KCAGuQD6aYl2nhWBE3rp0sik1iyg3fkx8MVJx4pTj1Rno/UXHqhuRqtAbFuxWvuJGrvpejC03S/pGuTSrRyFftETQYKPHGml8cMb48ZiyGTZno3xGOm90yvZWu27jpz8UZ2XhH0GNZzX09CcvrgsdNpq+iMnjSrorKatUxWJ9/gt69tp94NyywpC112+qNYb4b1QpvNzaeCubsq5u3hzd9bs2A/f+EBwSJw66gArhB/DBZsOCPcdE7sd5HuWJRYgeFKEAuuBy9Gaq5Ea0PjNDfitXeT9PeS9WGp+vtpugeZhqfZmtLaFg1bMYmprWwcW9tCXFrbOre2c25l50inNYT6u5OlrYuVtcug76dduXkPRqi3jEHQnOYsWWvV0ZXWpW0nt627AkQSKWtZWUWVrcMgC1vY/kxW2bnYOw8Z/P20i9duy2GAf3WxmcNUkQDmFuv6U8HsHRWzd1bN2VU1dw/Pax9/IdW3an2P8lcG8tecFGwMEW+5KN55VbYXtsK78sD7ytOPVecioF1pr8Vqwapbpl71c5r+fobhYYbhUbb+UbYOmlZLNkQQq7W1owW1H7lZ2Lha2NB6OUEsbKlQv5vKD7+0tXcb57kg7JcnMEuxjtOQmITUWd6r+o+aMvD7qT5rtkKrYy2A3Pr5UWtbN5NY1KbpMmhcbGJqSzqiGcJUkQDmFuvaI/7MbRUzt1XN2s6bvZMHrctrPzVvLT7EX3ZcsCpYsO6MaNN58Y7L0j3X6w7eUwT9ojr7BNqVFtrV9TjN7QRtWIruF9gBM3QPMw2PswxPc/RPc/WR+fpKETUjs07HSmxCqkUH8InZkkwByahAr6LT6CFnKxtnlwFjjwaff0vfquUL4fouOT2LLxSzHqLjf/TMy3ZFdcS1W/ewFvyOYapIAHOLdfUh33NLhedW3oyfamZuq5m9w+TWPt5Cfxjk+csDBatP8jeEiPwuiXeDWHcVJx6qzz+DdqWGTRAuA2H7C08HpXTQpZ7k6iNy9M/zDJF5+hf5hpxKnVzJPh0rpo7lQotlaeM8fMKskMs3z5ly+sJ1/2Onl/64xXXguLYdXWC4tqJCuWXvOPj0+eusQ7U8fruP0Jq2snOGdngo8Cxrwe8YpooEMLdYVx7wp2wq+2FT5dQtPJNevFk7qufuBrdqwa2lR2tXBvHXnRX4XZKCWIfDlKceqS9GwHSlvpGgvpeiBaseZOseZ0OX0j3L00XmQ7RR+frYfH1ikbJO0UzHMon1r260YMlahUpNB8YdGKVFEllFJe9oUIh1N/c2pjUQGLTbdxuYkJzBOhrkUuit+T5rZi9eNmfxirneK1/EJDY8JJHV+R8JnrtoVe/BE+kzwvYKvvYfNXX2oh/neK8+fOwszPUwZUVExngt+XGu9yo6G3/anZ1b0HAcVtIyctZs2jXHe82cRavnLlqxadvu3PxC1pqWh6kiAcwt1qVfaiatL/XYUDl5Y8UPm6umbOVN+4k3fXv1rF28uXupvuV7TLjqpGDTBfHOUNnhn5VnnmguR6lvxqvuJKvDMzQPTY3qWR7sfbrofG1Mvi4mXxtbqI8rMsQX6wUy9ulYgeEGLLE07XeUWEvXsRY05EVcYtc+w2EIM41i1DQ2ZZYPeMBatnnH/nadXVvZ9YJtro2N07WbYQ0Pwc44ZY6PaatlpvvGgX45a8EqsVQGK+MSU92HjjcNedRDHbq7h1wMbXJbBw0DT19sY+8Glx2tbV3hOmPJio18gYi1rOVhqkgAc4t18T5vwrqS8WvKJ66vmLSh0mNj1eRNvClbeNP8qmZsp8Z57wCB7zHR+rOS7dekR8IV5yLUN+LUYcnqB+nqJ7na55RS+qhCQ0yhIaHIkAgpNiSUGBNLIYZKkY51OlZALOo20ssSevm8USzInfBHnZyG0mKBBw6uox4+imKtocWCK0pLG8e21s6hr4lFXQq8UayVtFi1AtHytX5tXl5dWto6+vy4mVcraDhUQyqreDO8VtLXs/DT3mnIxat3WGveKUwVCWBusc6HV4/9sWjMqrKxq8vHramETFhbNWlDtcfGyh9g9tpWPWcXzPL8lcGibVelxx/IL0erw5I0jzO1ETmw5WljiwzQnCiTSkApXXKJPrlUn8hEV8xnn44V2ApNlWuRWFBv39V+0OGsTGa0t3ffsfsIa4rfsmP/V/bwqKPVa2IJhOKpVMdqSizTDtsgFjSnqzfDurgNf7nAyWXAmOS07IZDNSQ2IaWz0+CG44wYP7OkrJK15p3CVJEA5hbrXBhv9PLiUcvLqKwoHbWydPSq0u9Xl0HGri2fuLFyyuaqGduqFwbwN12QnnoCO6DmWQ7serp48KlYn1RiSC4xpJQaU0rhpz61zGCKzhRtQU3zMxbUo4ViwfQDW5tNz/4msahZHlSoevXGOoj19RvEUihVkdEJobfDPeevpE8HB4EZy3vFZvgjJComseE+FrSiUZNmQRszvdvj1Laj6+nzoa+/S73T/1jDi7e0c9l14Nh73rZgqkgAc4t19i5vpE/xCN/yEb5lw33LhvmWDl9Op2zEirKRK8u+/7F07Ooyj40VPodrQ6O1MUXGpBJdShk4ZISkvZr0cmN6BURHJ7+mmfcNTWIxMxbk7WJBomIT+wydYGUqNtgz0mN2elZe4wWviuXUWCwIVB3k2LwjgD4dbF6gzuGgEPgjpLET8Pse/6CvOvU2XStQt7vGT1/4+n15pwFjTLfcqKO179a3qKSMteBdw1SRAOYW6/TtqiGLCoYsLh28qGSQd/HAxUVUFhUP8IYwv/SdX+A6I3fM0qSfY/kFtcbcSm1WlSGz8tVUGTKqjOmVplTpqVTqWyJW65d3wN8+vNMBjUZ7zGljzTyl/6gpMQkpjRds3bH/G0osOBqI5cgSi86WnQfpp9NOHAk+x1pAJzMnv6PDADCPXgwjV0FRaeMFDx4+tzK9EnjlbaydlqzY0PjRXxemigQwt1inblUO8s4fuLB4wIKi/l6F/SDzC93nFfSZU+A6K89lRq6jZ073iVnWw1P7eb54ksCrlerK+JrCWn0eT5/bKNk8fWZ1QwyQjCp9sYB9OlZiEkAsZuJpiVjZuYVjp8w3dSxqA3UfNgF6WOMFr4hl0yv05r3Gj9JpEAsaG3S+N4kFWeSzDsSib9LCLxv89jU8BBvr1Nm+tOKwKdt265ea3sQQ9q5hqkgAc4t18kbFd/Ny+84r7DO3sPfsArdZ+S4z8pyn5/XyzHWYltvVI9N+bLr18PTWvROdxj9/Fs+T1OtrpLoKkb5EYCjkG6CBQfJrDHk1+hyeLrvalCo9lWp9uYh9OlZYYi1sQcca5TGHFsvKptfAkRNj4pMaL3i5FVLFbmvjEHrzbuNH6TQSi7qaO/xmseISUr+xd6dv08PL6+E2ooYvpB+CfvZtF9goqXu24NwMr+UNz3qfMFUkgLnFOnG9os/sHPDJdWaB8/QCZ88Cx6n5Dj/kd5+c13lits3o1PbDUtt8l/K5Q7zDmMiIBJ5UbhDVGWukxkqxsUxoLOYbi2oNkMJaQz5Pl8fTUqnWQXKrddDeWKdjBcRq1SCWdfNixcSn9Bs+mRreqWtDx9ETp6dlvNInGLGoR0Gsnk2KtfmlWKZu9Dax5ArlhKkLoDWCPXQuv2yBe/wDTTdsqYe+7ux+9/7jhme9T5gqEsDcYgWHVrjNzAalHKfl9pqS33NyXg+PvO4T8zpPyLMZlfnN0JQ23yV/6Zr0P11je4x6HpFUU68ySORGgczAkxgqRcZyobGEr4cUQ2p1pujzeRpIHk8jqW/+qrAV1Q/g6swZLuIWLmlGrDvhj+yoz+W5tqZuZTlNn+9TXlnVeIFJLOr97BaL5Xg4OIS1oHFu3rtvaetAWwVnnDJviVKlqRWIRoyfSf8RMm7KguKyCtYTf12YKhLA3GIdv1LqOCXTcWpBz8n53T1yu0zMth+f1XFsju2I3A5Ds9r2T2vdJ+nzXgkf2Uf3NIklV+mkCmhaBr7UAH2rSmSsEOrLBbpSvo4xjHLLUFhjKOZrFM196twkFtS4RWIJRJI1W/ZQToBYds5tOrmt9dsFs07jNe8ollOzYpVVVA76Hnok7ZBTL/cR8Ulpd+8/6d57JP3Hdh2d9x0Mev09gF8XpooEMLdYR6+UOExO7+GR231SXreJufbjs+2+z7QemdF+aGa7/mkWfZL/4RT/SY/YD+2iqY6VXKPQ6OroplVnqJUZeeCW2Fgp0pcL9aUCSiwqtQZwiyfWKZv74qHpqpASC8rc7Fb4+NmLLm4jYOKBsQye1cVl+K17D1hr3lksu15vF0siq9t14Gg7W9hbKY3ad+8Lm+Bav71fdeoDox6k79BJkTEJrGf96jBVJMDvIFaPSendJuR0GZ9tPzbbdnRGh5EZ3wxLazcgzbIvtQnCdPVJ17gPbV90H0mJpdTq5RqDVGkQy438ekNtHbhlqJboK0S6cpGuTKgtobqXobzWIJU3M2BBXhHrzcM7dKWIF/FDx86gbpqbYmnjMnXW0tffZmmJWA3De0s6FuTZ81invmNM650t7Fz6DJnYZ5gH/QZAW7vei5ZvruX/+jcHWWGqSABzi3XoYknX8Wmdx2Z1HJ1lA41qeOq3w1LbDkqG0apV76QvnBI+6xH/sX3sBzaUWM9TalRag1xjrFPqJXK9sF7PrzOCWzVSfbVYVynWVog15SJNmcBQKzYoVC0Vi76eB7Fev90A+1xxaXnA0VPuQyZY2jhaWjtDLKyd29m7RbyIYy2GtESsrTsPUoowYjm9ZXinU1VVM3/JOkvqPeZesL6NnQv9IVVoV/bOwy7fYN/RKKlR34hRXI78Vy5FKi9RPxWXohTPs1Rv+dAHU0UCmF2s86VdxqbZjc6wHZnZYVjat8NSvhqcYjUg0YpqV4lfOCZ82j3uvzvG/s36RbcRESCWWms0iaWFhiSSG0Asyi0pzPJ6nlRfJdaCXlUiaFfsEzUZlliDRk89EnzuZUK27ArwmLmkZ5/R7bvCvkPdTLe0djLF8fSFa6zpis67i/W2q0I6cJoTIVftHAZZ2VAfmjDdiHekGq2NK7zg6ho+a/29eGX3ZeJ2c4Vt54rpWM2TWs2DnyKr+cJ5x2Vv+ZIcU0UCmFusgyElHUcm247M6DA07dshae0Gp7YZkGrRL4luV5/2hH0w/kO72L92eNF1+PPIlBqt1qjSGOtVOplCL1EYBfVU6L4FYlGR6MUyfQv/rUPsq2KZQr0JCL/AX0yfV6auGem3aExxtunRf/+hE1Bs1qHoNIhladtCsVwOB59nLXg9ufnFA0Z50m9+Q+A1f9kRnusKrZS1EnIrVmntLf5imuDzaSI6n3pKPvWEn8JPpws8D0prJRwQKyCk2G5Ess2IjPZD0r8ZnNZmYIpV/5RW7olfuiV+3iv+E2hXnWM/sIv5CyVWhEksg0pjkKv1sBtKlUZRvVEIbsEgDxuizMCT6QR1upZsgnRiqRukUCrqa4BQbMhLvVysbHvR07HJM8qqbzv3HjFu5oWrt2GgZh2nIaaPzbi1gunezsnStue1W03PWJTNdrS7LkeCmulYEGiOa7fus7JjxIJ8aedo4zCgqKSctRJyK05h7S36YpqwQazPPMWfecJPiNAzgBtiHThbZD00uf2QzK8HplMD+3fJFv2S/9k78X+dEz5ziPt799gP7WP+ahf9Xx2iuo6gxdKrNHql2qhQwYZolMqpwLAlqIN5Syeqb+kXv+hQd96pAjNWQQuhBqmXMfUqJyu4AHQaPGmGt/+Rkylp2W//svLmHQfadHZvRX1XAuzsde2Nb+lQ05XpbUpH2HNZC5pMXFLa112pw9Jpbee4euNPrDV0bsXJ23uLPwOfmsp0fxk3xDpT1GFo8reDM9sNoO6wg1Wt3FP+4ZpATVc9Yj/uGvO3TtF/tn3xJ5NYUSk8nU6v1hoosZTGeqWxTk5FXK8XyXSyeq3iXayC5BYUe/muX+C7YYHPRirwC5X18Ecv33W+6/y27jkUcvkGXJflFZbIFU0MVaxcuxm2eMUWL99NcDRvn/XRccmsBZBrN39e4LPByxeyfsGyteEPn7EWNJnSispvuvVpEKuDQ7/cgia+AgSJy1P5BNfNPth0joQpJPXspzSEqSIBzC3W/jOF7YckgVVW/ZIt+ia1cod2lfS5U/xnDvHQrj7qTIn1J5uo/2wfBcN7VHKNTg9iGRvEqpdTkckNcqVO+e4fRYL2IxRLRa8F/ggRS2WyOkon1rPekrp6RcPT4Rc5nKCpNfQCek0Lv6R65uL1tp2oNw1NcZrvsxb2R9YaOnKlViTTCN8Qab3mLQMoU0UCmFusfaeL2g1MtOoPA3tKa/fk1r2T/umS9IVj4t8dEj7uFveRfdwHHWP/bB315/YR3UY8pYd36FgqtVGpNMoVBrlCr1TC5tjSoerfNEKRZIzHQvoiA/J1l973H7Soz71rmCoSwNxi7T2V025AtFW/RMu+CRZ94lq7xXzpHP2PXi8+6Rn5927PP7aP+Kjjs79YP/7Ltw+7j3ocmQRboUFDiaVTqXRKCDf+qd/d8Mc93EabxKIybtqCotImxvb3D1NFAphbrKiE6v2n8vaeLNh7onBPcMGeoILdgQW7jhdsP5q37XDuT4dy/AJythzI2ro/K/BcbmmlVKPVaTQ6aOZvuuD//xe+ULxyw/a2nejJ3RHaVcCx07/Vm4OsMFUkgLnFwjQbuHR1H+7BfF3bxuW74R5Rjb6u+NuGqSIBUKw/VmC0PxJ8rk1H+lats6Wt86JlG8QS6ss8JMJUkQAo1h8rZRVVwyfOsWDe/Haxdx10O4z9kYrfMEwVCYBi/bFyM+xBm04uoBT1PTAbp2ETPVlfOPttw1SRACjWHyt7AwLHTZ0/fuoCU7zOXPr1/4ykJWGqSAAU64+VopLynPyi3PxiU4oEb/1vue8fpooEQLE4HaaKBECxOB2migRAsTgdpooEQLE4HaaKBECxOB2migRAsTgdpooEQLE4HaaKBECxOB2migRAsTgdpooEQLE4HaaKBECxOB2migRAsTgdpooEQLE4HaaKBECxOB2migRAsTgdpooEQLE4HaaKBECxOB2migRAsTgdpooEQLE4HaaKBECxOB2migRAsTgdpooEQLE4HaaKBECxOB2migRAsTgdpooEQLE4HaaKBECxOB2migRAsTgdpooEQLE4HaaKBECxOB2migRAsTgdpooEQLE4HaaKBECxOB2migRAsTgdpooEQLE4HaaKBHhfsRCkSVAshAgoFkIEFAshAoqFEAHFQoiAYiFEQLEQIqBYCBFQLIQIKBZCBBQLIQKKhRABxUKIgGIhRECxECKgWAgRUCyECCgWQgQUCyECioUQAcVCiIBiIURAsRAioFgIEVAshAgoFkIEFAshAoqFEAHFQoiAYiFEQLEQIqBYCBFQLIQIKBZCBBQLIQKKhRABxUKIgGIhRECxECKgWAgRUCyECCgWQgQUCyECioUQAcVCiIBiIURAsRAioFgIEVAshAgoFkIEFAshgNH4f/hcOddXU9iTAAAAAElFTkSuQmCC;" vertex="1" parent="CYpEhEliiHO1DW0B8zgd-3">
          <mxGeometry x="235.5" y="284.95" width="69" height="69" as="geometry" />
        </mxCell>
        <mxCell id="CYpEhEliiHO1DW0B8zgd-13" value="" style="endArrow=classic;startArrow=classic;html=1;rounded=0;entryX=0;entryY=0.5;entryDx=0;entryDy=0;" edge="1" parent="CYpEhEliiHO1DW0B8zgd-3" source="CYpEhEliiHO1DW0B8zgd-7" target="CYpEhEliiHO1DW0B8zgd-12">
          <mxGeometry width="50" height="50" relative="1" as="geometry">
            <mxPoint x="-287.85" y="241.45" as="sourcePoint" />
            <mxPoint x="215.5" y="322" as="targetPoint" />
          </mxGeometry>
        </mxCell>
        <mxCell id="CYpEhEliiHO1DW0B8zgd-14" value="" style="edgeStyle=orthogonalEdgeStyle;rounded=0;orthogonalLoop=1;jettySize=auto;html=1;" edge="1" parent="CYpEhEliiHO1DW0B8zgd-3" source="CYpEhEliiHO1DW0B8zgd-15" target="CYpEhEliiHO1DW0B8zgd-16">
          <mxGeometry relative="1" as="geometry" />
        </mxCell>
        <mxCell id="CYpEhEliiHO1DW0B8zgd-15" value="&lt;div&gt;&lt;br&gt;&lt;/div&gt;&lt;div&gt;&lt;br&gt;&lt;/div&gt;&lt;div&gt;&lt;br&gt;&lt;/div&gt;&lt;div&gt;&lt;br&gt;&lt;/div&gt;&lt;div&gt;&lt;br&gt;&lt;/div&gt;&lt;div&gt;&lt;br&gt;&lt;/div&gt;&lt;div&gt;Monitor&lt;/div&gt;&lt;div&gt;&lt;br&gt;&lt;/div&gt;" style="points=[];aspect=fixed;html=1;align=center;shadow=0;dashed=0;fillColor=#FF6A00;strokeColor=none;shape=mxgraph.alibaba_cloud.prometheus;" vertex="1" parent="CYpEhEliiHO1DW0B8zgd-3">
          <mxGeometry x="108.3" y="403" width="48.9" height="48.9" as="geometry" />
        </mxCell>
        <mxCell id="CYpEhEliiHO1DW0B8zgd-16" value="" style="image;sketch=0;aspect=fixed;html=1;points=[];align=center;fontSize=12;image=img/lib/mscae/Docker.svg;" vertex="1" parent="CYpEhEliiHO1DW0B8zgd-3">
          <mxGeometry x="107.75" y="513" width="50" height="41" as="geometry" />
        </mxCell>
        <mxCell id="CYpEhEliiHO1DW0B8zgd-19" value="LLM" style="swimlane;whiteSpace=wrap" vertex="1" parent="1">
          <mxGeometry x="1080" y="127" width="200" height="572" as="geometry">
            <mxRectangle x="724.5" y="128" width="120" height="30" as="alternateBounds" />
          </mxGeometry>
        </mxCell>
        <mxCell id="CYpEhEliiHO1DW0B8zgd-20" value="OPENAI&#xa;" style="shape=image;verticalLabelPosition=bottom;labelBackgroundColor=default;verticalAlign=top;aspect=fixed;imageAspect=0;image=data:image/png,iVBORw0KGgoAAAANSUhEUgAAAOEAAADhCAMAAAAJbSJIAAAAe1BMVEUAAAD////u7u74+Pj09PTJycnBwcH7+/vi4uLr6+v19fXc3Nzs7OzMzMw1NTWAgICmpqa3t7cwMDAZGRmKiorV1dWysrJSUlIoKChKSkqYmJhtbW15eXkiIiKLi4tZWVk8PDxjY2N0dHQSEhKenp6UlJRAQEAVFRVfX1/uFoGaAAAM+0lEQVR4nO1daXuqPBO2QhWlKi6427q0nv7/X/jWlZnJZJJgEJ/3yv3tHCjmhmT2TBqNgICAgICAgICAgICAgICAgICAgICAgICAgP8jjDdn/Kt7HFVgPptk72kz7kZRN+6krWy9GNc9Jo+YLfP4TUGzN9nWPTIv6H93VHY3pJ+Husf3KHY9Pb0Lhou6x/gI9qmJ3wmt/yzHRW7D7/wd/5tSZ2rL7w/tSd2jdceXIF84vI/qHrEjlm78/hD/1j1mJ7ScCf7hp+5R22OTaDh04yRNO3GkuTyte+C26HNLsPm+3C2uBul8ts9yjuaw3oHbYqQS7E5/N8pt63c9xfn2eJy/qrlzaNJhd9aaWzeZ8iGnq6yX3IzYKMmzwfaZg7cCNWM6e+nub92aLBC3Ji+lSagUXRruHzFzVUG7N3iZKTvBQ0ssTM5B24LjW5wpK7kWzPCw7GTjQadcCIbzikdvAzxWSxU+UWSTBu1l7XMV22p21vTO8gue0anZtOu7E+wbPWSCrGoSIpBYtJmim8yR3x+SGlUHEjMtiz8YMPEpM6JV5Ux0gJ8wMcuEL22II2qmeS9PmjprYPAEMhyOcBBfprvnGgcrzfaFUhjtM1YO1RQRGIIhmOTB4Zull09UlTeaMOGez2ooGABMk9gwR9dsiEMbV1wMlXvrmKgD61nEx+CGfeFP+grHnd/RW2ADhh1LN/ILMD0anr8gC7ItvRDv2Kym6PcFVXj44QSk1oOEILrTQlr7wm+LqLW2Xiev2AX4bTfYHXZCnhXVmahjftfde2RNtJa1kXLEJrpRI3nA4bPLDFkz5Q5sEDydOfzeGC2GZvXzdMDOOY0M+ORMtKaj7t6gX/z2wEHCSOMWpNzNv6xtkjnnu5H7UrE8HXBDPoFx7PtsMOa9zAC/DD/lD/q4vWJujFkfKSmps5G9t32MhICRkPqkI19zQYpuecsSWkSVfcSF5Nht8b2sjT19IHC2AM9pV5RanXGDvgPf+8XckQsLcDT4WRtialDrmMKx5TBTA5wp0Iv4ZlXGJIKPvjmPvi0bOWP4MB+EKBaKZdnbNT7u/4jw3XQRtqW3fteZH6KhCiWXi8FgiTEdc3py64r/lBkOhQX4ldCnagCVYgVan0jR+PK27RjmwrCPdD4P9fYquJW1Lx4C0W296zexYShOPUZndrUTel/cJDgy5bDCg7iPwYKhNJ8GfGC/oxFKGyAKPMcWySIsUoNGhi1BBcz0gX3NvAYmseeFiB0gYL2YGPb0z+zLhRuscfBTXBeeXAIL9NtwfmgZXuW/1is2Z4FjJigC7IgPP9SuQEEyZGGXZbjC0z5njfSO6s2Dq77InbCDP4uDvuUYznBc8RSQ4rPe7zQUB16MT9MUqsJc94v2DOd4VbevMoNPKBJnGdzjsXYTfUJiPJdguMQxnlbxxAm3NJtoVYAv7VFdwPlDV78zwx2O8STIvhyzQSt4D5C//hhu4Y/Ri44MFzjG01TiAgs+8Li9XQdRfn8MgQ5SIxVODOknyjhhwQaPb2u1GoZgcXeUiy4MSeq3p0tZ/LwxuJZYVTFLR+Bn1CinPcMvIiqlgI2aVXu7+lVArHuTpaDaqa1etWV4VE20lpB2mvGJuHkDTGFvtVJg6TNVCJYMM7bCS8oY85G6CXiOL4INsHiYmW/FkB3tCbGU0uUT4nc0fRGERjcTJ7JgOMPRAazVEyHeMhKdD2++BXB9ucCBiWHrH5Ya0XK8xBxbQohxJwSgvRVJLeVnmhh2sIY4J+1Jcj4SgwBcGu8MsUDXBWCmcIvGxBDhHkdb4G/TlFSbbguOtzgNEKXcknFgiAJSpO5ECsZtWb/KX6yt0NPtLXPZnmGG5dSB+LxTIZ6zYvwqf7WKxbuOOJFgy5DJGZLkYiQVNX4qDP1ZpQXDLjfz7RgmfHEBMeR0McQz6HJk33cZgF0UMTePbBjG+qT9xNIYbyhq1V9upviGcclvyPpIN1CHaipkn8jKtalktcGj6zA3lXVtsc/bFQw5Enj3VMX3oCzVx0sLELc+0Vetz9Ck9rQUH9SHNlNJ0XdF0IKijyjavD4zHrRpSjEsghYKFsgN81KKCXyYMnZpOYb39KQKVB/gJbK/Lp6XM5c9Muxi7Zhr/CpUseSj8BvUX7RL+IcODJuNbxwJ0Ox3gl6jGhorAeDNMdPeK0Pq87Z5Qw6+B5sSXBNATIipRPLLULFcWL8K5LrZleMKEL2M1Ktg7eDwYEmGSlCH86tgIM5DTBEGalR9AS0pVJNXmqFS8Kd+xl9w1YcXBXxV1e3sI+EAWkCUZ0hziUw1KfiIPhQGfKXq+yS24t3MfoQhySWqnwmuRM/TlIkdkH0it3TSYwyRz8v4SSA+5aOGD1LgLDeSLbrUqD/KEGTsmdgv8Ll8SFM4J97YCu0frKpP+wyqZQhkDSPg3QG/EW/Pz3EI9M9yrpYhtEN8VCkiU1CTFSPZoiSqliH4NR9mDfqIWpdlzwWBq2IIBLyXuOIOjVo7Lb7VHFpVDPduP2E9iAsirQraKtmiqhgCFeYnCdVH+aJIv7eK5rJtGPZKMAQD8hRWJDtlhMSPbT3CDceb0CjL0IuP2FD2ykibAGlGwjJe6sRwXrzHD19b2cj00wTqzyDZIsuYtxPDTeFjedusN6JFZ9LOHFrbZZO3KPsNfc1SxYt4k1tg/ODkrTn3VPs6ZKvqpW0wc1riJecPXRkWqtff9hm2akASlcSvQjngwYfyKCeGIATorShjpAzpAkmqklpnXR6/BEMQxvWVg8I+FEQkhWVJaQlXixEnJRiCOe5tW4LQNEfaFjoy1dMMx8MSDMEC8FZ2IrY9kvbWizVRp4nbKsEQ2PjeahQNjbmcq/DOYz8LnxIMgeYSm3E4oXhmm+2CpM0WncDWJt5yaCUYAhvSmyjdFM/sKLruglwy5IT60hIMwQvz1pQHOGSnkCLfa6YlGNm072DxOtwZwmd5q/4CM/+igPh2JbroJWn+gQpL3RmCn/Zn0QCGN5Ob3ZvFlv3Q/my4AMWZIXRW/TUhZhg2tmzFuZotIg0Se+QGZ4bQJdn6odfgGao9ji7APi/ZR9lRzANXhnC3gp9yjDNWmqeyui4qBBwRol1mVjkyRG1OPDbGIrK0gOoGnXDzq0iAka2xdGQIpbjPHd2goQF1OTU9Wv7E+Br7SJryCjeG6IV67W0GnqtcozHECzKSd9O5y04MUdDPR96pAPgczKdgeyVBCPXqLgxxKMXvARlAZXMO4UY+9EHac+AQ896hh3ruawbKv3gRfdQf3CHtG7n34rNgiL3wpucmNWB+dDWNrHb82RbqPkqA4sWZGZKjJXx3bB21LZ79w2wAET1H8E5MDDc9++eWA3DV9cGfETXk9LWi1EExMFwTWea/uQlciFJjETRsKfa/IS9DZEjr2N+aFRxxBrtEiTPkPvWEhMXfoqJuv5bhB3N6VLeSk5SAWjf02rr4VVJjL2YbDJHQxYVYja62K2ii1MCizLDMN/ufgTCT2X7leEL/Y+4oUA3BxhjOK1PiUwBvHBCbZ8Hdc/uolR32BUVDeZOQ7QzapJG6nZ5gWl13dthdoWwwXdPfQ1nX6l6uG7zlKTgg+V6mFax9M0zdHuC2lwIh/QCRhHfesqJxltk9MpoWUr2qT/NAO8g7jpYv29gr5iO6R3YDv1Xv6MeAjzxKXOwKNmf4NtU8gusD+0BnUAfglpZNa53B763XZ5BVhdl51rEBpAOSXaDkwB6pJ+wZ7ZNb49bzjmGhB/zY+DDsgQHRj1AHg9Z7Ml099USkPpEBxqOdtuwClHrxoTru9Pknee7oYMXTDRSH8Qxp/33D0NboCVDlnP6Eiikn9U1CfwztOu/DtwFjUeWfqrE4H/CxKeOBAVCa1XQ04oQbeJLtC5bzfabpSyIvwBPgpp9HfJiHoGvMHjWTvJen2tN+3lKz1D+YtwY8Ayvz+YUMxJ5CNyBlX5Gra4ORy7FpV1gd9IdUYX2f8ATXk8V6Vr4Ibtb21ENlVPy6HN9seWAAFtNVH2RhxEGJCOpge2IHtl8rabzuiDlrsTBf0K4WmzggNYoZgE1mdRCeTfBhRmb9y5y7fhj0bCar6RB15Ui2SiNOrhgN6NlPDMSuZerpPBVkXh7EdpDltz15b3HSy1ZK4DfSKcSDWvb9hCOPyuEwOh63N8uTEUPva2Wybn6HqoHUeanjnPXgJG2UZ/vZ9R2MF6vvHje/O9tax+0AXflCFHfSNIl1LQOTVzjj2BJsx1wTXkqKGvHrfm5sNafkVAerQ9QBmGb6L4+JrfV6wrNON/SLsaX1aozBvTAW8mkdV6Tetr/UAebkW4Le84+J9YzDp9AVuPNdszvvCdtJj8khxvnyNTxBPxgv1lkr7cRxt9uNP9L3bDL7Dxkw9vi3OeP5SZeAgICAgICAgICAgICAgICAgICAgICAgICACvE/lV+c3XTDkVwAAAAASUVORK5CYII=;" vertex="1" parent="CYpEhEliiHO1DW0B8zgd-19">
          <mxGeometry x="70" y="294.2" width="50.5" height="50.5" as="geometry" />
        </mxCell>
        <mxCell id="CYpEhEliiHO1DW0B8zgd-21" value="" style="endArrow=classic;startArrow=classic;html=1;rounded=0;entryX=0;entryY=0.5;entryDx=0;entryDy=0;exitX=1;exitY=0.5;exitDx=0;exitDy=0;" edge="1" parent="1" source="CYpEhEliiHO1DW0B8zgd-12" target="CYpEhEliiHO1DW0B8zgd-20">
          <mxGeometry width="50" height="50" relative="1" as="geometry">
            <mxPoint x="940" y="542.75" as="sourcePoint" />
            <mxPoint x="990" y="492.75" as="targetPoint" />
          </mxGeometry>
        </mxCell>
        <mxCell id="CYpEhEliiHO1DW0B8zgd-22" value="Internet Service" style="swimlane;whiteSpace=wrap" vertex="1" parent="1">
          <mxGeometry x="800" y="127" width="280" height="572" as="geometry">
            <mxRectangle x="724.5" y="128" width="120" height="30" as="alternateBounds" />
          </mxGeometry>
        </mxCell>
        <mxCell id="CYpEhEliiHO1DW0B8zgd-24" value="Slack" style="aspect=fixed;sketch=0;html=1;dashed=0;whitespace=wrap;verticalLabelPosition=bottom;verticalAlign=top;fillColor=#2875E2;strokeColor=#ffffff;points=[[0.005,0.63,0],[0.1,0.2,0],[0.9,0.2,0],[0.5,0,0],[0.995,0.63,0],[0.72,0.99,0],[0.5,1,0],[0.28,0.99,0]];shape=mxgraph.kubernetes.icon2;kubernetesLabel=1;prIcon=api" vertex="1" parent="CYpEhEliiHO1DW0B8zgd-22">
          <mxGeometry x="115" y="152" width="50" height="48" as="geometry" />
        </mxCell>
        <mxCell id="CYpEhEliiHO1DW0B8zgd-25" style="edgeStyle=orthogonalEdgeStyle;rounded=0;orthogonalLoop=1;jettySize=auto;html=1;entryX=0.005;entryY=0.63;entryDx=0;entryDy=0;entryPerimeter=0;" edge="1" parent="1" source="CYpEhEliiHO1DW0B8zgd-10" target="CYpEhEliiHO1DW0B8zgd-24">
          <mxGeometry relative="1" as="geometry" />
        </mxCell>
        <mxCell id="CYpEhEliiHO1DW0B8zgd-27" style="edgeStyle=orthogonalEdgeStyle;rounded=0;orthogonalLoop=1;jettySize=auto;html=1;exitX=0.5;exitY=1;exitDx=0;exitDy=0;exitPerimeter=0;" edge="1" parent="1" source="CYpEhEliiHO1DW0B8zgd-24" target="CYpEhEliiHO1DW0B8zgd-7">
          <mxGeometry relative="1" as="geometry" />
        </mxCell>
      </root>
    </mxGraphModel>
  </diagram>
</mxfile>
